# xmcd
#
# Track frame offsets:
#	150
#	22598
#	42901
#	58698
#	76715
#	93601
#	109926
#	120901
#	140731
#	156963
#	176057
#	195151
#	217295
#	234728
#	257164
#	277893
#	294512
#	310491
#	327358
#	343092
#
# Disc length: 4815
#
# Revision: 4
# Processed by: cddbd v1.5.2PL0 Copyright (c) Steve Scherf et al.
# Submitted via: kJams Lite 1.0a1.12
#
DISCID=2412cd14
DTITLE=Various Artist - ZM–PCP–12
DYEAR=2012
DGENRE=Karaoke
TTITLE0=Ellie Goulding - Anything Could Happen
TTITLE1=Pink - Blow Me (One Last Kiss)
TTITLE2=Robbie Williams - Candy
TTITLE3=Rihanna - Diamonds
TTITLE4=Swedish House Mafia - Don't You Worry Child
TTITLE5=Script Feat. Will.I.Am - Hall Of Fame
TTITLE6=Lucy Spraggan - Last Night
TTITLE7=Ne–Yo - Let Me Love You (Until You Learn To Love Yourself)
TTITLE8=One Direction - Live While We're Young
TTITLE9=Robbie Williams Feat. Lissie - Losers (Duet Version)
TTITLE10=Robbie Williams Feat. Lissie - Losers (For Solo Male)
TTITLE11=Emeli Sande - Read All About It (Part III)
TTITLE12=Example - Say Nothing
TTITLE13=Adele - Skyfall
TTITLE14=Scouting For Girls - Snakes And Ladders
TTITLE15=Girls Aloud - Something New
TTITLE16=Lawson - Standing In The Dark
TTITLE17=Calvin Harris Feat. Florence Welch - Sweet Nothing
TTITLE18=Taylor Swift - We Are Never Ever Getting Back Together
TTITLE19=Amelia Lily - You Bring Me Joy
EXTD=
EXTT0=ZOO-393
EXTT1=ZOO-393
EXTT2=ZOO-393
EXTT3=ZOO-393
EXTT4=ZOO-393
EXTT5=ZOO-393
EXTT6=ZOO-393
EXTT7=ZOO-393
EXTT8=ZOO-393
EXTT9=ZOO-393
EXTT10=ZOO-393
EXTT11=ZOO-393
EXTT12=ZOO-393
EXTT13=ZOO-393
EXTT14=ZOO-393
EXTT15=ZOO-393
EXTT16=ZOO-393
EXTT17=ZOO-393
EXTT18=ZOO-393
EXTT19=ZOO-393
PLAYORDER=
